<svg width="74" height="71" viewBox="0 0 74 71" fill="none" xmlns="http://www.w3.org/2000/svg">
<g clip-path="url(#clip0_123_552)">
<path d="M74 13.2143C74 20.1243 65.8649 30.4342 62.3549 34.5499C61.8318 35.1555 61.061 35.3895 60.359 35.2381H47.5714C45.135 35.2381 43.1667 37.2065 43.1667 39.6429C43.1667 42.0792 45.135 44.0476 47.5714 44.0476H60.7857C68.0811 44.0476 74 49.9665 74 57.2619C74 64.5573 68.0811 70.4762 60.7857 70.4762H22.7396C23.9371 69.1135 25.3962 67.3653 26.869 65.4107C27.7362 64.2545 28.6309 62.9881 29.4844 61.6667H60.7857C63.2221 61.6667 65.1905 59.6983 65.1905 57.2619C65.1905 54.8255 63.2221 52.8571 60.7857 52.8571H47.5714C40.276 52.8571 34.3571 46.9382 34.3571 39.6429C34.3571 32.3475 40.276 26.4286 47.5714 26.4286H53.0498C50.1592 22.0926 47.5714 17.1097 47.5714 13.2143C47.5714 5.9189 53.4903 0 60.7857 0C68.0811 0 74 5.9189 74 13.2143ZM19.6425 67.324C19.1194 67.9159 18.6514 68.439 18.2522 68.8795L18.0045 69.1548L17.9769 69.1272C17.151 69.7604 15.9673 69.6778 15.224 68.8795C11.7552 65.1079 3.5238 55.4036 3.5238 48.4524C3.5238 41.157 9.4427 35.2381 16.7381 35.2381C24.0335 35.2381 29.9524 41.157 29.9524 48.4524C29.9524 52.5818 27.048 57.6748 23.9647 61.9282C22.4918 63.9516 20.9777 65.7824 19.7251 67.2277L19.6425 67.324ZM21.1429 48.4524C21.1429 47.2842 20.6788 46.1638 19.8527 45.3377C19.0267 44.5117 17.9063 44.0476 16.7381 44.0476C15.5699 44.0476 14.4495 44.5117 13.6235 45.3377C12.7974 46.1638 12.3333 47.2842 12.3333 48.4524C12.3333 49.6206 12.7974 50.741 13.6235 51.567C14.4495 52.3931 15.5699 52.8571 16.7381 52.8571C17.9063 52.8571 19.0267 52.3931 19.8527 51.567C20.6788 50.741 21.1429 49.6206 21.1429 48.4524ZM60.7857 17.619C61.9539 17.619 63.0743 17.155 63.9003 16.3289C64.7264 15.5029 65.1905 14.3825 65.1905 13.2143C65.1905 12.0461 64.7264 10.9257 63.9003 10.0996C63.0743 9.27359 61.9539 8.80952 60.7857 8.80952C59.6175 8.80952 58.4971 9.27359 57.6711 10.0996C56.845 10.9257 56.3809 12.0461 56.3809 13.2143C56.3809 14.3825 56.845 15.5029 57.6711 16.3289C58.4971 17.155 59.6175 17.619 60.7857 17.619Z" fill="#102E48"/>
<path d="M59.5508 32.318C60.5281 32.9913 61.5375 33.5952 62.5676 34.18C63.4653 33.4126 64.3298 32.6053 65.1586 31.7604C66.5392 30.3413 67.8204 28.8241 68.9929 27.2199C71.6941 23.5072 74.0502 19.0288 74 12.9206C73.9826 10.8066 73.6639 9.23419 72.8254 7.63492C71.9869 6.03565 70.6715 4.08812 69.3015 2.93651C67.9316 1.78489 66.296 1.11593 64.6031 0.587301C62.9103 0.058669 61.3089 -0.174828 59.5509 5.78961e-09C57.7928 0.174828 55.7333 0.986879 54.1777 1.83855C52.6221 2.69022 51.2468 3.84855 50.1305 5.24741C49.0142 6.64627 48.1787 8.25825 47.6716 9.99133C47.1645 11.7244 46.9958 13.5446 47.1751 15.3481C47.727 20.8978 51.5178 25.5121 54.8975 28.6216C56.3628 29.964 57.9177 31.1982 59.5508 32.318ZM61.6667 17.619C59.3175 17.619 58.8995 17.1998 58.5 17C58.1005 16.8002 57 16 56.5 14.5C56 13 56.2189 12.5622 57 11C57.5873 9.8254 59.2099 8.93702 60.4921 8.80952C61.7284 8.80952 62.739 9.15146 63.7381 9.99133C64.7372 10.8312 65.0597 12.1927 65.1905 13.5079C65.1905 14.7826 64.5 16 64.0038 16.5C62.5196 17.5449 63.4286 17.0317 61.6667 17.619Z" fill="#F28A33"/>
</g>
<path d="M14.2026 68.1764C15.1121 68.996 16.0607 69.7451 17.0317 70.4762C18.0049 69.7548 18.9489 68.9875 19.8609 68.1764C21.3813 66.813 22.8122 65.3346 24.1429 63.7523C27.2107 60.0887 30.5397 54.7778 30.5397 48.8161C30.5397 46.8788 30.1903 44.9604 29.5114 43.1705C28.8326 41.3806 27.8376 39.7543 26.5833 38.3844C25.329 37.0145 23.8399 35.9279 22.201 35.1865C20.5621 34.4451 18.8056 34.0635 17.0317 34.0635C15.2579 34.0635 13.5013 34.4451 11.8625 35.1865C10.2236 35.9279 8.73451 37.0145 7.48019 38.3844C6.22586 39.7543 5.23087 41.3806 4.55203 43.1705C3.8732 44.9604 3.5238 46.8788 3.5238 48.8161C3.5238 54.7778 6.85276 60.0871 9.92056 63.7523C11.2513 65.3352 12.6821 66.8125 14.2026 68.1764ZM17.0317 52.8571C15.738 52.8571 14.6454 52.6816 13.7306 51.6825C12.8158 50.6835 12.3153 49.5 12.3153 48.8161C12.3153 47.4032 12.5932 46.4991 13.5079 45.5C14.4227 44.5009 15.738 44.0476 17.0317 44.0476C17.595 44.0476 19 44.5 20 45.5C20.9148 46.4991 21.1429 47.3331 21.1429 48.746C21 50 20.7753 50.6533 20 51.5C19.4108 52.1435 18.3254 52.8571 17.0317 52.8571Z" fill="#F28A33"/>
<defs>
<clipPath id="clip0_123_552">
<rect width="70.4762" height="70.4762" fill="white" transform="translate(3.5238)"/>
</clipPath>
</defs>
</svg>
