<svg width="23" height="23" viewBox="0 0 23 23" fill="none" xmlns="http://www.w3.org/2000/svg">
<path d="M15.88 4.05499L19.445 7.61999M6.75 6.74999H3C2.66848 6.74999 2.35054 6.88169 2.11612 7.11611C1.8817 7.35053 1.75 7.66847 1.75 7.99999V20.5C1.75 20.8315 1.8817 21.1495 2.11612 21.3839C2.35054 21.6183 2.66848 21.75 3 21.75H16.75C17.0815 21.75 17.3995 21.6183 17.6339 21.3839C17.8683 21.1495 18 20.8315 18 20.5V14.875M21.0113 2.48749C21.2455 2.72163 21.4313 2.99961 21.558 3.30556C21.6848 3.61151 21.75 3.93944 21.75 4.27062C21.75 4.60179 21.6848 4.92972 21.558 5.23568C21.4313 5.54163 21.2455 5.81961 21.0113 6.05374L12.4562 14.6087L8 15.5L8.89125 11.0437L17.4463 2.48874C17.6802 2.25441 17.958 2.06851 18.2639 1.94167C18.5698 1.81483 18.8976 1.74954 19.2287 1.74954C19.5599 1.74954 19.8877 1.81483 20.1936 1.94167C20.4995 2.06851 20.7773 2.25441 21.0113 2.48874V2.48749Z" stroke="white" stroke-width="2" stroke-linecap="round" stroke-linejoin="round"/>
</svg>
