<svg width="68" height="68" viewBox="0 0 68 68" fill="none" xmlns="http://www.w3.org/2000/svg">
<path d="M54.0416 43.25H47.8749M37.0833 43.25H30.9166M20.1249 43.25H13.9583M33.9999 15.5H34.0277M33.9999 3.16667C27.1858 3.16667 21.6666 8.74442 21.6666 15.6233C21.6666 19.5577 23.2083 22.6163 26.2916 25.3482C28.4653 27.2752 31.0985 30.4757 32.6772 33.0657C33.4357 34.3114 34.5087 34.3114 35.3227 33.0657C36.9815 30.5251 39.5345 27.2752 41.7083 25.3512C44.7916 22.6163 46.3333 19.5577 46.3333 15.6233C46.3333 8.7475 40.8141 3.16667 33.9999 3.16667Z" stroke="#F28A33" stroke-width="5" stroke-linecap="round" stroke-linejoin="round"/>
<path d="M55.5833 21.6667C57.9698 22.1292 59.7735 22.9 61.2196 24.1857C64.8333 27.4017 64.8333 32.5662 64.8333 42.9047C64.8333 53.2431 64.8333 58.4107 61.2196 61.6205C57.606 64.8303 51.7939 64.8333 40.1666 64.8333H27.8333C16.206 64.8333 10.3909 64.8333 6.78029 61.6236C3.16663 58.4107 3.16663 53.24 3.16663 42.9047C3.16663 32.5693 3.16663 27.3986 6.78029 24.1888C8.22946 22.9 10.0301 22.1292 12.4166 21.6667" stroke="#102E48" stroke-width="5" stroke-linecap="round" stroke-linejoin="round"/>
</svg>
