<svg width="33" height="33" viewBox="0 0 33 33" fill="none" xmlns="http://www.w3.org/2000/svg">
<path d="M11.408 30.0092L15.2028 21.9431C15.6167 21.0652 15.8245 20.6244 16.1076 20.4865C16.2298 20.4269 16.364 20.396 16.5 20.396C16.6359 20.396 16.7701 20.4269 16.8923 20.4865C17.1754 20.6244 17.3832 21.0634 17.7971 21.9431L21.5919 30.0092C22.2136 31.3296 22.5235 31.9908 22.4071 32.3348C22.3568 32.4807 22.2697 32.6111 22.1542 32.7134C22.0386 32.8158 21.8986 32.8865 21.7477 32.9188C21.393 32.9959 20.7749 32.6089 19.535 31.8349L17.2596 30.4123C16.9837 30.2403 16.8475 30.1543 16.6988 30.1203C16.5679 30.0905 16.432 30.0905 16.3011 30.1203C16.1542 30.1543 16.0144 30.2403 15.7403 30.4123L13.4649 31.8349C12.225 32.6089 11.6069 32.9959 11.2522 32.9188C11.1013 32.8865 10.9613 32.8158 10.8457 32.7134C10.7302 32.6111 10.6431 32.4807 10.5928 32.3348C10.4746 31.9908 10.7863 31.3314 11.408 30.0092Z" fill="white"/>
<path d="M16.5 14.7083V11.125V14.7083Z" fill="white"/>
<path d="M16.5 14.7083V11.125" stroke="white" stroke-width="2" stroke-linecap="round"/>
<path d="M26.8917 0.375H6.10833C4.10167 0.375 3.09833 0.375 2.3315 0.765583C1.65728 1.10912 1.10912 1.65728 0.765583 2.3315C0.375 3.09833 0.375 4.10167 0.375 6.10833V20.9039C0.375 21.8069 0.375 22.2584 0.455625 22.6311C0.600977 23.3045 0.937362 23.9217 1.42449 24.4088C1.91162 24.896 2.52885 25.2324 3.20225 25.3777C3.57492 25.4583 4.02642 25.4583 4.92942 25.4583C5.09604 25.4583 5.18025 25.4583 5.2555 25.4458C5.39016 25.4229 5.51781 25.3695 5.62867 25.2897C5.73953 25.2099 5.83067 25.1058 5.89512 24.9853C5.94251 24.8875 5.98089 24.7855 6.00979 24.6808L12.2627 5.91842C12.4974 5.21429 12.6157 4.86133 12.8343 4.59975C13.0261 4.36999 13.2725 4.19198 13.5509 4.08196C13.868 3.95833 14.2407 3.95833 14.9843 3.95833H18.0175C18.7611 3.95833 19.132 3.95833 19.4473 4.08375C19.7261 4.193 19.9732 4.37041 20.1657 4.59975C20.3843 4.86133 20.5026 5.21429 20.7373 5.91842L26.9902 24.679C27.044 24.8402 27.069 24.9173 27.1049 24.9835C27.1691 25.1043 27.2602 25.2088 27.371 25.2889C27.4819 25.369 27.6097 25.4227 27.7445 25.4458C27.8197 25.4583 27.904 25.4583 28.0706 25.4583C28.9736 25.4583 29.4251 25.4583 29.7995 25.3777C30.4724 25.2322 31.0891 24.8959 31.5758 24.4092C32.0626 23.9224 32.3988 23.3057 32.5444 22.6329C32.625 22.2566 32.625 21.8069 32.625 20.9039V6.10833C32.625 4.10167 32.625 3.09833 32.2344 2.3315C31.8909 1.65728 31.3427 1.10912 30.6685 0.765583C29.9017 0.375 28.8983 0.375 26.8917 0.375Z" fill="white"/>
</svg>
