<svg width="86" height="86" viewBox="0 0 86 86" fill="none" xmlns="http://www.w3.org/2000/svg">
<path fill-rule="evenodd" clip-rule="evenodd" d="M24 19.25C24 14.2109 26.0018 9.37816 29.565 5.81497C33.1282 2.25178 37.9609 0.25 43 0.25C48.0391 0.25 52.8718 2.25178 56.435 5.81497C59.9982 9.37816 62 14.2109 62 19.25C62 24.2891 59.9982 29.1218 56.435 32.685C52.8718 36.2482 48.0391 38.25 43 38.25C37.9609 38.25 33.1282 36.2482 29.565 32.685C26.0018 29.1218 24 24.2891 24 19.25ZM24 47.75C17.7011 47.75 11.6602 50.2522 7.20621 54.7062C2.75222 59.1602 0.25 65.2011 0.25 71.5C0.25 75.2793 1.75134 78.9039 4.42373 81.5763C7.09612 84.2487 10.7207 85.75 14.5 85.75H71.5C75.2793 85.75 78.9039 84.2487 81.5763 81.5763C84.2487 78.9039 85.75 75.2793 85.75 71.5C85.75 65.2011 83.2478 59.1602 78.7938 54.7062C74.3398 50.2522 68.2989 47.75 62 47.75H24Z" fill="white"/>
</svg>
